HIERARCHY
ROOT Hips
{
     OFFSET 1.88212 96.90440 -13.34250
     CHANNELS 6 Xposition Yposition Zposition Zrotation Xrotation Yrotation
     JOINT Spine
     {
          OFFSET 0.00000 11.89050 0.00000
          CHANNELS 3 Zrotation Xrotation Yrotation
          JOINT Spine1
          {
               OFFSET -0.00000 25.65740 0.12766
               CHANNELS 3 Zrotation Xrotation Yrotation
               JOINT HEad
               {
                    OFFSET 0.00000 8.73416 0.01134
                    CHANNELS 3 Zrotation Xrotation Yrotation
                    End Site
                    {
                         OFFSET -0.29000 12.77420 2.51395
                    }
               }
               JOINT LeftShoulder1
               {
                    OFFSET 8.99000 -0.36225 -0.22000
                    CHANNELS 3 Zrotation Xrotation Yrotation
                    JOINT LeftArm
                    {
                         OFFSET 10.28270 -0.00338 0.32212
                         CHANNELS 3 Zrotation Xrotation Yrotation
                         JOINT LeftForeArm
                         {
                              OFFSET 32.76690 0.09914 -1.42434
                              CHANNELS 3 Zrotation Xrotation Yrotation
                              JOINT LeftHand
                              {
                                   OFFSET 27.56430 0.08536 1.02216
                                   CHANNELS 3 Zrotation Xrotation Yrotation
                                   End Site
                                   {
                                        OFFSET 16.74430 -0.60000 1.50291
                                   }
                              }
                         }
                    }
               }
               JOINT RightShoulder
               {
                    OFFSET -8.99000 -0.36225 -0.22000
                    CHANNELS 3 Zrotation Xrotation Yrotation
                    JOINT RightArm
                    {
                         OFFSET -10.28270 -0.00338 0.32212
                         CHANNELS 3 Zrotation Xrotation Yrotation
                         JOINT RightForeArm
                         {
                              OFFSET -32.89710 0.09914 -1.42434
                              CHANNELS 3 Zrotation Xrotation Yrotation
                              JOINT RightHand
                              {
                                   OFFSET -27.49210 0.08536 1.02216
                                   CHANNELS 3 Zrotation Xrotation Yrotation
                                   End Site
                                   {
                                        OFFSET -16.63120 -0.60000 1.50291
                                   }
                              }
                         }
                    }
               }
          }
     }
     JOINT LeftUpLeg
     {
          OFFSET 8.94580 -8.66707 0.10165
          CHANNELS 3 Zrotation Xrotation Yrotation
          JOINT LeftLeg
          {
               OFFSET 0.00000 -44.42270 1.37270
               CHANNELS 3 Zrotation Xrotation Yrotation
               JOINT LeftFoot
               {
                    OFFSET -0.25355 -42.09240 -1.46059
                    CHANNELS 3 Zrotation Xrotation Yrotation
                    JOINT LeftToes
                    {
                         OFFSET -0.04000 -4.41509 8.49910
                         CHANNELS 3 Zrotation Xrotation Yrotation
                         End Site
                         {
                              OFFSET 0.08000 -0.04745 9.77979
                         }
                    }
               }
          }
     }
     JOINT RightUpLeg
     {
          OFFSET -8.94580 -8.66707 0.10165
          CHANNELS 3 Zrotation Xrotation Yrotation
          JOINT RightLeg
          {
               OFFSET 0.00000 -44.42270 1.37270
               CHANNELS 3 Zrotation Xrotation Yrotation
               JOINT RightFoot
               {
                    OFFSET 0.25355 -42.09240 -1.46059
                    CHANNELS 3 Zrotation Xrotation Yrotation
                    JOINT RightToes
                    {
                         OFFSET 0.04000 -4.41509 8.49910
                         CHANNELS 3 Zrotation Xrotation Yrotation
                         End Site
                         {
                              OFFSET -0.08000 -0.13745 9.77979
                         }
                    }
               }
          }
     }
}
MOTION
Frames: 8
Frame Time: 0.01667
31.07395 89.24020 -5.32546 3.18607 49.52582 -156.80666 10.11177 42.05701 -9.46996 0.00998 0.10154 -0.02998 13.36772 13.23710 -26.70090 0.88396 14.80890 -1.73224 -76.36210 -11.40150 -72.90955 -28.16531 30.95774 -92.17988 15.29828 7.18579 -8.55069 35.97937 3.81813 -6.48893 73.00964 -40.13110 73.38863 8.44565 29.07525 95.98503 15.69922 10.96514 4.27693 23.46932 18.14800 -28.29976 -38.90599 19.57874 77.93946 -8.18558 -0.00013 -0.00114 7.05336 -33.33024 -78.56775 -39.36881 -39.23870 -47.96987 182.23161 53.66153 -164.29446 0.08532 0.06854 0.02004 2.38353 49.58007 -4.89053 
30.92647 89.59851 -4.76736 3.89101 47.41376 -157.93977 9.72828 43.15001 -9.74787 0.01991 0.09306 -0.02992 13.37620 11.47405 -25.19638 0.75041 12.49734 -0.64368 -77.04356 -11.00068 -72.20893 -27.76175 32.10197 -92.39169 14.88188 7.34720 -7.76303 35.61613 3.45271 -5.24940 74.17811 -39.58603 74.36700 8.26129 29.38192 96.74133 15.64923 10.57747 3.78962 22.21555 16.28946 -26.54482 -38.30418 19.30084 78.10934 -7.10463 0.00115 -0.00319 6.20005 -32.30309 -78.37822 -34.57383 -41.04144 -52.03381 191.67984 52.27476 -178.59389 0.34665 0.07854 0.00454 1.66376 42.42189 -3.22513 
30.77035 89.98434 -4.12792 6.02347 43.86959 -160.69923 9.55013 43.27737 -9.42465 0.02589 0.08471 -0.03089 13.07689 9.17003 -23.35581 0.56663 9.83455 0.54100 -77.80219 -10.89006 -71.72340 -27.54791 33.20062 -92.49194 15.06197 7.31581 -7.88093 34.99324 2.75596 -3.55254 75.31758 -38.89875 75.26951 8.07057 29.67437 97.45110 15.55633 10.37617 3.55161 21.24115 13.18243 -23.66803 -37.45730 18.68632 78.08462 -5.87178 0.00229 -0.00595 5.41726 -31.03338 -78.07932 -30.06252 -44.77883 -55.93530 200.00235 51.79069 -191.69002 0.86780 0.10252 -0.00049 1.25974 39.08030 -1.42065 
30.60108 90.24136 -3.37481 7.73036 40.45036 -163.06360 9.49209 43.61538 -9.30723 0.00914 0.02467 -0.01317 12.92606 7.28601 -21.69309 0.41854 7.26872 2.07369 -78.52486 -10.63959 -71.25519 -28.52269 34.66737 -90.92448 15.61273 7.90478 -9.25813 33.98670 5.16375 -3.97652 79.53101 -36.73164 80.33558 7.82808 29.98203 98.32023 15.44581 10.13986 3.26332 20.39825 10.18234 -20.99852 -36.47200 17.95867 78.02456 -4.55024 0.00227 -0.00872 4.66179 -29.60312 -77.74451 -24.04839 -47.43273 -58.04113 212.50322 53.73400 -208.05428 1.93522 0.05082 -0.02200 0.76013 34.06197 2.34377 
30.40708 90.20546 -2.48628 9.04936 37.08361 -165.16321 9.45941 44.09599 -9.32693 0.00969 0.02149 -0.01211 12.82777 5.70950 -20.11476 0.35400 4.72250 3.76856 -79.33667 -10.41861 -70.91069 -29.50495 36.02601 -89.61800 15.98472 8.47386 -10.27456 32.86419 6.44849 -3.76592 82.38922 -34.63948 83.65329 7.58298 30.26919 99.20466 15.30166 9.88265 2.94078 19.55451 7.15988 -18.42468 -35.44883 17.13998 78.00243 -3.10529 0.00160 -0.01088 3.97269 -28.02072 -77.36816 -16.23366 -48.10126 -57.83135 231.94412 55.88552 -229.81161 3.05959 0.04648 -0.04543 1.44682 33.52527 4.92436 
30.18366 89.88553 -1.46188 10.02980 33.71659 -167.09938 9.41054 44.52912 -9.49201 0.01035 0.02104 -0.01315 12.74493 4.61379 -18.61077 1.73285 5.05000 3.54262 -82.27511 -12.61261 -72.94703 -30.47214 37.30542 -88.58516 16.22001 9.02988 -10.99856 31.49276 6.97593 -3.13066 84.40357 -32.66618 85.77368 7.37438 30.50601 99.99115 15.12165 9.63468 2.60494 18.66389 4.00429 -15.88847 -34.49677 16.25595 78.07093 -1.52137 0.00057 -0.01192 3.38156 -26.30769 -76.94659 -7.44393 -46.68554 -55.98695 255.66022 54.60458 -254.63193 3.71789 0.03029 -0.03349 2.78059 35.43504 6.79929 
29.99106 89.48261 -0.35893 10.36483 29.84340 -169.08104 8.25065 44.33231 -8.84112 -0.00471 -0.00956 -0.00178 12.43482 4.12364 -16.87546 2.61737 4.67514 4.13359 -85.01316 -15.47272 -74.23416 -31.25558 38.72292 -87.61658 18.02974 14.20808 -9.77797 29.58603 6.91109 -2.18363 85.26923 -29.82233 85.97888 7.17648 30.97118 100.00819 17.56289 5.15228 3.62679 17.51108 0.37252 -13.30963 -33.55794 15.50621 77.92277 -0.27793 0.00603 -0.00772 8.80406 -22.94282 -75.65248 1.57527 -43.70864 -52.80487 276.95401 48.36617 -276.85254 4.01870 0.01574 -0.01315 4.28694 33.75805 5.23569 
29.76296 89.14060 0.70286 10.14277 25.56581 -171.14053 6.22804 43.38885 -7.61423 -0.00665 -0.01084 -0.00073 11.77097 4.25141 -14.89757 3.11928 3.86021 5.28621 -87.81347 -19.12812 -75.07072 -31.86247 40.29358 -86.75700 20.41859 21.13725 -7.96341 27.25560 6.42022 -1.09058 85.22626 -26.13581 84.90923 7.11130 31.53801 99.24714 21.23462 -0.56966 6.05202 16.22902 -3.59684 -10.77426 -32.70478 14.75639 77.55396 0.66987 0.00904 -0.00609 12.69213 -20.15933 -74.22041 9.64630 -39.65148 -49.25308 291.64301 39.06525 -293.42059 4.55373 0.02399 -0.04516 4.00897 29.42682 2.96471 
